<svg id="visual" viewBox="0 0 900 600" width="900" height="600" xmlns="http://www.w3.org/2000/svg" xmlns:xlink="http://www.w3.org/1999/xlink" version="1.1"><path d="M0 197L300 182L600 207L900 209L900 601L600 601L300 601L0 601Z" fill="#f3880a"></path><path d="M0 261L300 323L600 258L900 245L900 601L600 601L300 601L0 601Z" fill="#fdb068"></path><path d="M0 352L300 388L600 378L900 390L900 601L600 601L300 601L0 601Z" fill="#ffd7b2"></path><path d="M0 508L300 451L600 504L900 478L900 601L600 601L300 601L0 601Z" fill="#ffffff"></path></svg>