<svg id="visual" viewBox="0 0 900 600" width="900" height="600" xmlns="http://www.w3.org/2000/svg" xmlns:xlink="http://www.w3.org/1999/xlink" version="1.1"><g><g transform="translate(653 329)"><path d="M48.7 -25.3C60.4 -7.9 65.2 16.3 55.9 31.8C46.7 47.4 23.3 54.5 -1.1 55.1C-25.6 55.7 -51.1 50 -63 32.9C-74.8 15.8 -73 -12.6 -60.2 -30.6C-47.4 -48.6 -23.7 -56.2 -2.6 -54.7C18.5 -53.2 37 -42.6 48.7 -25.3Z" stroke="#F3880A" fill="none" stroke-width="20"></path></g><g transform="translate(105 82)"><path d="M38.7 -23C46.5 -8.8 46.7 9.1 39 22.5C31.3 35.9 15.6 44.8 -2.8 46.4C-21.1 47.9 -42.3 42.3 -52.1 27.7C-61.9 13.1 -60.3 -10.4 -49.8 -26.2C-39.2 -41.9 -19.6 -49.8 -2.1 -48.6C15.5 -47.4 30.9 -37.1 38.7 -23Z" stroke="#F3880A" fill="none" stroke-width="20"></path></g><g transform="translate(872 456)"><path d="M33.5 -17.9C40.2 -7.8 40 7.6 33.3 18.5C26.6 29.5 13.3 36 1.3 35.3C-10.8 34.6 -21.5 26.6 -26.1 16.9C-30.7 7.1 -29.1 -4.4 -23.7 -13.7C-18.3 -23.1 -9.2 -30.3 2.1 -31.6C13.4 -32.8 26.9 -28 33.5 -17.9Z" stroke="#F3880A" fill="none" stroke-width="20"></path></g></g></svg>