<svg width="38" height="26" viewBox="0 0 38 26" fill="none" xmlns="http://www.w3.org/2000/svg">
<path d="M2.14474 11.2343C2.14276 11.2779 2.14276 11.3115 2.14078 11.3531C2.14078 11.369 2.14078 11.3947 2.14078 11.4106C2.14078 11.4284 2.1388 11.4443 2.1388 11.47C2.1388 11.5037 2.14672 11.5373 2.13682 11.571C2.13682 11.6047 2.13682 11.6304 2.12691 11.6641C2.08928 11.4938 2.09126 11.3611 2.14474 11.2343ZM27.251 9.90321C27.251 9.89529 27.2431 9.89529 27.2431 9.88737C27.2431 9.89529 27.251 9.90321 27.251 9.90321ZM16.0478 0.853084C15.2119 0.89468 14.3918 0.987777 13.7144 1.10068C13.546 1.13039 13.3797 1.15218 13.2291 1.18387C13.0766 1.21358 12.936 1.23537 12.8092 1.25914C12.5497 1.31262 12.3398 1.35026 12.1892 1.37997C12.0387 1.43741 11.8703 1.49287 11.694 1.53843C11.6089 1.5622 11.5177 1.59389 11.4326 1.61766C11.391 1.63351 11.3494 1.64143 11.2999 1.65728L11.1652 1.69689C10.8126 1.79989 10.46 1.90091 10.1649 2.02966L10.2243 1.98806C10.1391 2.02174 10.0143 2.06135 9.84597 2.12474C9.76079 2.15643 9.66968 2.18812 9.57658 2.21981C9.47556 2.25151 9.37454 2.29112 9.25768 2.33074C8.81201 2.4991 8.27324 2.70708 7.73447 2.94874C7.20362 3.19039 6.67278 3.44789 6.24295 3.69153C6.19145 3.7252 6.13203 3.74897 6.08251 3.78066C6.03101 3.81433 5.98149 3.8381 5.92999 3.86979C5.83689 3.92724 5.7438 3.97676 5.66853 4.02429C5.59128 4.07381 5.51601 4.12333 5.45658 4.15503C5.39716 4.19662 5.33774 4.22831 5.29614 4.26199L5.39716 4.21247C5.10995 4.42639 4.98318 4.49968 4.85641 4.55514C4.79699 4.58683 4.73756 4.61258 4.6623 4.64427C4.62862 4.66012 4.58703 4.68389 4.53553 4.70766C4.50978 4.72549 4.48601 4.73341 4.46026 4.74926C4.43451 4.7651 4.40876 4.78095 4.37508 4.79877C4.43451 4.8166 4.33943 4.92356 4.22058 5.03845C4.16116 5.09589 4.08391 5.16126 4.02449 5.2286C3.99081 5.26029 3.95714 5.28604 3.93139 5.30981C3.90564 5.33556 3.87197 5.35933 3.85414 5.37518L3.84622 5.35933C3.77887 5.41677 3.6937 5.49006 3.6006 5.58118C3.5491 5.6307 3.4976 5.68022 3.44808 5.72974C3.42233 5.7535 3.39658 5.77926 3.36291 5.80302C3.33716 5.82877 3.31141 5.86047 3.27774 5.88622C3.21832 5.94366 3.16682 6.0011 3.10739 6.05062C3.04797 6.10806 2.99647 6.1655 2.93705 6.22295C2.82612 6.33981 2.7152 6.4547 2.6122 6.55374L2.59635 6.50224C2.58051 6.52799 2.55476 6.55175 2.53693 6.5775C2.51118 6.60127 2.49534 6.62702 2.46959 6.65079C2.41809 6.70031 2.36659 6.75775 2.31509 6.81718C2.28934 6.84095 2.26358 6.87462 2.22991 6.90631C2.20416 6.93998 2.17049 6.96573 2.14474 6.99743C2.08532 7.06477 2.02589 7.12222 1.97439 7.18758C1.74462 7.4431 1.53862 7.69268 1.4277 7.84123C1.29895 8.00762 1.15237 8.19777 1.0058 8.41368C0.861201 8.6276 0.714624 8.86925 0.575971 9.13468C0.44524 9.40208 0.322433 9.69325 0.241221 10.0122C0.160009 10.3212 0.11049 10.6559 0.104548 10.9748C0.0490863 11.2521 0.0173941 11.5453 0.0193747 11.8483L0.0589901 11.9751C0.0589901 11.9751 0.0669128 11.9751 0.0847401 11.985C0.100586 11.9929 0.116433 12.0008 0.142182 12.0108C0.191701 12.0365 0.274894 12.0642 0.366009 12.09C0.407605 12.0999 0.457124 12.1177 0.514567 12.1276C0.566067 12.1375 0.623509 12.1454 0.680951 12.1553C0.797817 12.1672 0.914682 12.1692 1.03155 12.1553C1.14841 12.1395 1.26726 12.1078 1.3762 12.0682C1.42572 12.0444 1.48514 12.0207 1.52872 11.9969C1.55249 11.9791 1.57824 11.9632 1.59607 11.9474C1.62182 11.9315 1.63766 11.9137 1.66341 11.8978C1.74859 11.8325 1.82385 11.7493 1.88526 11.6681C1.9011 11.6423 1.91101 11.6265 1.92884 11.6007C1.94468 11.575 1.95459 11.5512 1.96251 11.5255C1.98034 11.4759 2.00609 11.4264 2.02391 11.367L2.07343 11.3769C2.06551 11.3512 2.06749 11.3175 2.06749 11.2917C2.05957 11.268 2.05957 11.2343 2.06155 11.2085C2.06155 11.157 2.07145 11.1154 2.06353 11.0738C2.06353 11.0323 2.06551 11.0065 2.06551 10.9808C2.06551 10.957 2.06551 10.9392 2.06749 10.9312C2.06749 10.9233 2.07541 10.9134 2.08334 10.9233L2.07343 10.957V10.9907L2.06353 11.0659L2.06155 11.1333C2.06155 11.1412 2.06155 11.157 2.06155 11.1669V11.2006C2.06155 11.1491 2.07145 11.1154 2.07145 11.1075C2.07937 11.0917 2.07937 11.0917 2.0873 11.1075C2.09522 11.1174 2.09522 11.1333 2.10314 11.159C2.11107 11.1749 2.11899 11.2006 2.12691 11.2184C2.12691 11.2006 2.12889 11.1768 2.12889 11.159C2.12889 11.1432 2.12889 11.1174 2.1388 11.0996C2.1388 11.0917 2.1388 11.0838 2.1388 11.0758C2.1388 11.0659 2.1388 11.058 2.14672 11.0501C2.1487 11.0342 2.15662 11.0164 2.15662 11.0006C2.14078 10.957 2.13087 11.0243 2.12295 11.058C2.12295 11.0323 2.11503 10.9986 2.11503 10.9649C2.11701 10.9312 2.10909 10.8976 2.10909 10.856C2.11107 10.8223 2.11107 10.7807 2.12097 10.747C2.12889 10.7054 2.1388 10.6718 2.14672 10.6381C2.16455 10.5806 2.17445 10.5549 2.1903 10.539C2.2002 10.5212 2.21605 10.5212 2.22397 10.5212C2.23387 10.5232 2.24972 10.5133 2.25962 10.4974C2.27547 10.4816 2.28537 10.4479 2.31112 10.3806C2.43393 10.0379 2.63399 9.68929 2.87366 9.3585C3.11532 9.02573 3.38866 8.70485 3.6937 8.39981L3.75312 8.34237C3.77095 8.32454 3.7967 8.30077 3.81453 8.28493L3.93337 8.16806L4.05222 8.05318L4.17899 7.93829C4.34933 7.78973 4.51968 7.63325 4.69795 7.4946C5.04458 7.19947 5.40905 6.92018 5.79133 6.65079C5.84085 6.64287 5.79926 6.66664 5.75568 6.70824C5.80718 6.66664 5.8666 6.62702 5.92603 6.58543C5.98545 6.54581 6.03695 6.50422 6.08647 6.46262C6.14589 6.423 6.19739 6.38933 6.24691 6.34774C6.29841 6.30812 6.35783 6.27445 6.40933 6.24275C6.51828 6.16947 6.62722 6.1041 6.73022 6.03081C6.77974 5.99714 6.83916 5.96545 6.89066 5.92385C6.94216 5.89216 6.9996 5.85849 7.0511 5.81887C7.11845 5.7951 7.16004 5.77727 7.20164 5.77133C7.23531 5.76341 7.26106 5.76341 7.28681 5.76341C7.27691 5.76341 7.30266 5.73964 7.36208 5.70597C7.42151 5.66635 7.5146 5.60891 7.63147 5.55147C7.86124 5.42272 8.18014 5.25237 8.50895 5.09985C8.59412 5.05825 8.67731 5.01864 8.75456 4.98695C8.83776 4.94535 8.91303 4.91366 8.9982 4.87404C9.15864 4.80868 9.30918 4.73737 9.43595 4.68785C9.50329 4.66408 9.56272 4.64031 9.61224 4.61654C9.66374 4.59277 9.71326 4.57693 9.75485 4.56108C9.8321 4.52939 9.88162 4.51354 9.88954 4.51354L9.89152 4.42045C10.4224 4.22039 10.0837 4.45808 10.563 4.26595C10.5967 4.21643 10.6719 4.18474 10.7571 4.14314C10.7987 4.12729 10.8502 4.11145 10.8997 4.0956C10.9512 4.07976 11.0008 4.06391 11.0503 4.05599C11.1018 4.04014 11.1513 4.0342 11.2028 4.01835C11.2523 4.00251 11.3018 3.99458 11.3454 3.97874C11.4286 3.95497 11.5039 3.9312 11.5375 3.89753C11.5375 3.90743 11.7812 3.84404 11.7812 3.88564C11.8406 3.79453 12.0327 3.79849 12.1833 3.74303C12.2348 3.71133 12.1338 3.73312 12.0922 3.7252C12.211 3.68558 12.3279 3.64597 12.4447 3.60635C12.52 3.59843 12.5616 3.59843 12.5794 3.61626C12.5874 3.62418 12.5616 3.64993 12.4863 3.66578C12.5438 3.64993 12.621 3.63408 12.7042 3.61824C12.7874 3.60437 12.8884 3.5806 12.9974 3.55683C13.1063 3.53504 13.2232 3.51128 13.3499 3.48949C13.4747 3.46572 13.6173 3.43601 13.76 3.41224C14.3383 3.31518 15.0237 3.2201 15.709 3.16662C16.0517 3.14879 16.3944 3.12899 16.7113 3.12701C16.7945 3.12899 16.8698 3.13097 16.953 3.12304C17.0282 3.12503 17.1114 3.12701 17.1867 3.12899C17.3372 3.13097 17.4878 3.14285 17.6284 3.15474C18.187 3.19039 18.6287 3.26566 18.8703 3.30528C18.8129 3.26962 18.7119 3.24387 18.6128 3.22406C18.5871 3.21614 18.5633 3.21416 18.5376 3.20624C18.5138 3.19633 18.4881 3.19633 18.4623 3.18841C18.4227 3.17058 18.3811 3.15276 18.3553 3.12701C18.4227 3.12701 18.4801 3.12899 18.5316 3.13097C18.5812 3.13889 18.6227 3.14879 18.6564 3.1587C18.7297 3.17653 18.7891 3.18643 18.8466 3.17851C18.8624 3.21218 18.9119 3.23793 18.9714 3.25576C19.0288 3.28349 19.0962 3.30131 19.1694 3.31914C19.2031 3.32904 19.2447 3.33697 19.2784 3.34687C19.3121 3.35678 19.3517 3.37262 19.3853 3.38253C19.4527 3.40828 19.5101 3.44393 19.5497 3.48751L19.6349 3.43799C19.6686 3.46374 19.7082 3.48949 19.7419 3.51524C19.8092 3.53306 19.8667 3.54297 19.9241 3.56079C19.9736 3.57862 20.0251 3.58853 20.0667 3.59843C20.1063 3.60635 20.14 3.61626 20.1737 3.62616C20.2074 3.63408 20.2311 3.64399 20.249 3.65191C20.3401 3.67964 20.3638 3.68756 20.3817 3.69747C20.4054 3.70539 20.4233 3.71331 20.4886 3.74897C20.5223 3.76679 20.5718 3.78462 20.6372 3.82028C20.7026 3.85395 20.7857 3.8896 20.9026 3.94308C20.968 3.96883 21.0254 3.99458 21.0848 4.02231C21.1423 4.04806 21.1997 4.07381 21.2492 4.09164C21.3562 4.1372 21.4473 4.17285 21.5305 4.20652C21.6969 4.27783 21.8296 4.33924 21.9524 4.43431C21.9108 4.40064 21.8534 4.32339 21.9782 4.38479C21.9782 4.41847 22.0693 4.46204 22.1584 4.51354C22.2079 4.53929 22.2575 4.56702 22.2991 4.59277C22.3407 4.61852 22.3644 4.64427 22.3723 4.67002C22.5051 4.73935 22.8913 5.04241 22.8022 4.87999C22.8279 4.92158 22.9171 5.00874 22.9824 5.07608C23.0399 5.14541 23.0716 5.17908 22.9567 5.10976C23.0141 5.16126 23.0716 5.20483 23.1211 5.24841C23.1706 5.29001 23.2201 5.33358 23.2696 5.35933C23.228 5.31774 23.1785 5.26624 23.1389 5.22266C23.1884 5.25831 23.236 5.29991 23.2776 5.33556C23.3192 5.36924 23.3607 5.40291 23.4004 5.43856C23.4756 5.50789 23.541 5.56731 23.6064 5.62674C23.6717 5.68814 23.7292 5.73964 23.7866 5.79114C23.8441 5.84264 23.9094 5.88622 23.9847 5.92979L23.8698 5.77529C23.9272 5.82679 23.9768 5.87829 24.0263 5.92187C24.0738 5.97337 24.1154 6.01497 24.157 6.05854C24.1966 6.10212 24.2303 6.14372 24.2541 6.18729C24.2778 6.22889 24.2937 6.26256 24.3016 6.29624C24.2204 6.22889 24.1451 6.15956 24.0639 6.09024C24.2442 6.26256 24.3828 6.40716 24.5215 6.54581C24.5868 6.61316 24.6522 6.68249 24.7275 6.74191C24.7928 6.81124 24.8661 6.88056 24.9473 6.94791L24.8503 6.83699C24.8741 6.86273 24.9077 6.88849 24.9493 6.92414C24.9889 6.95781 25.0305 7.00139 25.0721 7.04298C25.1613 7.13806 25.2682 7.24898 25.391 7.37773C25.6267 7.63523 25.8961 7.968 26.1556 8.30077C26.1893 8.34435 26.221 8.38595 26.2547 8.42952C26.2863 8.47112 26.32 8.5147 26.3517 8.55827C26.3834 8.59987 26.4171 8.64345 26.4488 8.68504C26.4824 8.72862 26.5062 8.77022 26.5379 8.81379C26.5953 8.89896 26.6607 8.97622 26.7181 9.05148C26.7736 9.12873 26.8231 9.20598 26.8806 9.28323C26.9281 9.35058 26.9776 9.41991 27.0252 9.48725C27.0668 9.54668 27.1064 9.6061 27.148 9.66552C27.2213 9.76852 27.2866 9.8537 27.3262 9.9052C27.3025 9.82993 27.2787 9.75268 27.2648 9.66948L27.3936 9.84775L27.5243 10.026C27.4926 9.98443 27.2926 9.95471 27.251 9.91114C27.3084 10.0141 27.3956 10.1667 27.5006 10.3548C27.6055 10.5489 27.7343 10.7866 27.871 11.06C28.1443 11.6027 28.4394 12.2643 28.7009 12.9417C28.9624 13.6191 29.1921 14.3065 29.3466 14.8809C29.4239 15.1681 29.4952 15.4296 29.5407 15.6415C29.5625 15.7504 29.5863 15.8435 29.6021 15.9287C29.616 16.0119 29.6319 16.0793 29.6398 16.1307C29.6814 16.4853 29.5546 16.212 29.5467 16.212C29.6002 16.416 29.6239 16.4576 29.6477 16.4912C29.6655 16.5269 29.6814 16.5507 29.719 16.7289C29.725 16.83 29.6695 16.719 29.6457 16.6695C29.6596 16.7448 29.6754 16.8201 29.6834 16.8795C29.6893 16.9389 29.6972 16.9726 29.7131 16.9805C29.7071 16.8795 29.725 16.8458 29.7507 16.83C29.7765 16.8141 29.8101 16.8062 29.828 16.7567C29.8418 16.8319 29.8577 16.9092 29.8636 16.9845L29.9012 17.2122L29.8517 17.2023C29.8596 17.2538 29.9072 17.3133 29.9468 17.4143C29.9706 17.4658 29.9943 17.5331 30.0181 17.6084C30.0419 17.6857 30.0577 17.7867 30.0637 17.8956C30.1469 18.6721 30.2301 19.5139 30.24 20.2963C30.2162 20.2864 30.1865 20.118 30.1647 19.9576C30.1627 20.0586 30.1845 20.2191 30.1647 20.3201C30.2102 20.126 30.2003 20.6469 30.2201 20.4964C30.2499 20.641 30.2716 20.7915 30.2776 20.9519C30.2835 21.1124 30.2875 21.2708 30.2756 21.4313C30.2736 21.5581 30.2617 21.6908 30.2598 21.8096C30.236 21.7759 30.2023 21.7403 30.1786 21.7066C30.0894 21.6036 30.0003 21.5006 29.9171 21.4154C29.8775 21.3719 29.8438 21.3382 29.8121 21.3045C29.7784 21.2788 29.7547 21.253 29.7289 21.2352C29.7111 21.2946 29.7784 21.3124 29.7428 21.3778C29.6754 21.3778 29.6952 21.3105 29.6517 21.3342C29.721 21.2352 29.5883 21.2332 29.6398 21.1163L29.5804 21.156L29.5903 21.1064C29.4833 21.053 29.4655 21.045 29.4576 21.0371C29.4496 21.0272 29.4576 21.0114 29.3843 20.942C29.2931 20.8727 29.1842 20.9044 29.1604 20.8371C29.1604 20.845 29.1525 20.8866 29.1268 20.8787C29.1624 20.8291 29.0356 20.8608 29.0693 20.8014C29.0456 20.7836 28.9723 20.7162 28.9445 20.7994C28.9544 20.7836 28.9465 20.7479 28.9386 20.7321C28.9307 20.7063 28.9386 20.6984 28.9643 20.6984C28.9386 20.6806 28.9307 20.6469 28.899 20.6469L28.9148 20.6885C28.8316 20.637 28.8336 20.5538 28.7326 20.5677L28.7405 20.6192C28.691 20.5835 28.6494 20.5578 28.6851 20.4825L28.7504 20.5003C28.6771 20.4409 28.6276 20.4052 28.5365 20.3874L28.5603 20.4052C28.5444 20.4052 28.5187 20.3953 28.4949 20.3953C28.4691 20.3854 28.4355 20.3775 28.4038 20.3597C28.3364 20.3339 28.2631 20.2983 28.1879 20.2706C28.1126 20.2369 28.0393 20.2092 27.972 20.1834C27.9066 20.1656 27.8472 20.1557 27.8135 20.1537V20.2309L27.7125 20.229C27.7204 20.2369 27.8412 20.1121 27.8571 20.1042C27.8155 20.0784 27.7501 20.0348 27.6511 19.9754C27.6016 19.9398 27.5521 19.914 27.5025 19.8784C27.4451 19.8447 27.3876 19.809 27.3302 19.7754C27.2133 19.706 27.0985 19.6367 27.0073 19.5753C26.9182 19.5139 26.8429 19.4703 26.8112 19.4367C26.7696 19.3772 26.8548 19.3455 26.8548 19.3376C26.7716 19.3178 26.7954 19.3772 26.738 19.3337C26.73 19.3178 26.7637 19.2921 26.7796 19.294C26.7459 19.2841 26.7399 19.2505 26.7221 19.2762C26.7459 19.3178 26.6865 19.3752 26.6766 19.4248L26.6033 19.3733L26.629 19.3317C26.6132 19.3237 26.5181 19.4228 26.4626 19.3535C26.3458 19.2683 26.2051 19.2069 26.0823 19.1277C26.1002 19.1039 26.1318 19.1039 26.1655 19.1039C26.1497 19.096 26.1239 19.0861 26.116 19.0623C26.1239 19.1197 26.0506 19.0603 26.0586 19.094C25.9813 19.1177 25.9318 19.0999 25.8743 19.0742C25.8248 19.0464 25.7753 19.0128 25.7179 19.0286C25.6901 19.0781 25.4406 19.4683 25.1989 19.8665C24.9572 20.2666 24.7235 20.6647 24.6898 20.7222C24.6661 20.7063 24.6482 20.6964 24.6482 20.6806C24.6403 20.7142 24.6819 20.7479 24.7057 20.74L24.7413 20.6826C24.8067 20.6826 24.7314 20.7242 24.7889 20.7499C24.7711 20.7994 24.7136 20.7895 24.672 20.7737C24.7057 20.7994 24.7295 20.8489 24.7711 20.8093C24.7968 20.8509 24.7374 20.8668 24.7691 20.9084C24.8027 20.9103 24.8701 20.8787 24.8939 20.9282L24.8859 20.9361C24.9434 21.0312 25.0523 20.9242 25.1018 21.0173L25.084 21.0252C25.0919 21.0668 25.1672 21.0609 25.1989 21.1104C25.191 21.0946 25.2009 21.053 25.2346 21.0609C25.2742 21.1203 25.3257 21.1144 25.3494 21.1738L25.4168 21.15C25.4247 21.1579 25.4406 21.1659 25.4564 21.1758C25.4742 21.1837 25.4901 21.1936 25.5059 21.2094C25.5475 21.2352 25.5891 21.253 25.6466 21.2887C25.7456 21.3402 25.8704 21.4016 25.9932 21.4709C26.0506 21.5066 26.118 21.5422 26.1754 21.568C26.2329 21.6036 26.2903 21.6294 26.3398 21.663C26.4389 21.7244 26.5221 21.7759 26.5716 21.8037L26.5636 21.8017C26.5953 21.8294 26.6369 21.8453 26.6865 21.8809C26.7281 21.9067 26.7776 21.9423 26.8271 21.976C26.8766 22.0097 26.9261 22.0453 26.9756 22.079C27.0232 22.1147 27.0826 22.1483 27.1301 22.1919C27.2371 22.2692 27.3441 22.3484 27.4431 22.4177C27.4689 22.4336 27.4926 22.4514 27.5184 22.4692C27.5421 22.487 27.5679 22.5029 27.5837 22.5207C27.6253 22.5544 27.6749 22.5821 27.7066 22.598C27.7145 22.6752 27.7798 22.7188 27.8115 22.7683C27.8056 22.7346 27.8393 22.7109 27.8551 22.7287C27.9779 22.8574 27.8888 22.7109 28.0274 22.8158C28.069 22.8416 28.1443 22.901 28.2176 22.9703C28.2592 23.006 28.2909 23.0476 28.3325 23.0912C28.3721 23.1328 28.4137 23.1763 28.4533 23.2278C28.4949 23.2694 28.5365 23.3209 28.5682 23.3645C28.5999 23.4061 28.6336 23.4576 28.6652 23.5012C28.7227 23.5864 28.7702 23.6537 28.796 23.6973C28.8277 23.7052 28.8534 23.7151 28.8772 23.7329C28.9029 23.7488 28.9188 23.7666 28.9346 23.7924C28.9683 23.834 29 23.8775 29.0495 23.8954L29.0337 23.9033C29.0574 23.9211 29.0911 23.9627 29.1307 24.0142C29.1565 24.04 29.1802 24.0736 29.204 24.1093C29.2298 24.143 29.2535 24.1766 29.2773 24.2103C29.3268 24.2796 29.3744 24.3549 29.416 24.4143C29.4397 24.4401 29.4556 24.4757 29.4714 24.4916C29.4892 24.5173 29.5051 24.5351 29.513 24.5431V24.5272C29.6121 24.5787 29.5368 24.6203 29.5606 24.7035C29.6279 24.6461 29.719 24.6896 29.7428 24.7075L29.7269 24.7154C29.7685 24.7511 29.8993 24.8026 29.9567 24.864L29.9151 24.8877C29.9646 24.9056 29.9983 24.9471 30.03 24.9986C30.0201 25.0165 30.0201 25.0323 30.0201 25.0501C30.0122 25.0838 30.0102 25.1175 30.0102 25.1492L29.925 25.2066L29.8398 25.272L29.8478 25.2977C29.8478 25.2977 29.9468 25.3413 30.0973 25.3948C30.1469 25.4126 30.1964 25.4305 30.2538 25.4483C30.2716 25.4661 30.2796 25.474 30.2954 25.4919L30.2261 25.6503L30.2419 25.6582C30.2419 25.6582 30.335 25.6186 30.4856 25.5473L30.4955 25.5374C30.5529 25.5552 30.6104 25.5751 30.6777 25.5929C30.9015 25.6563 31.1333 25.7097 31.3413 25.7395C31.5492 25.7692 31.7255 25.7811 31.8166 25.7494L31.8681 25.7672C31.8681 25.7513 31.8681 25.7414 31.8681 25.7256C31.9018 25.684 31.8622 25.6404 31.9018 25.6582L31.8761 25.7256C31.9018 25.6761 31.9177 25.7177 31.9434 25.7434C31.9513 25.7276 31.9612 25.7018 31.985 25.6939C31.9692 25.6761 31.9612 25.6939 31.9513 25.7018C31.9434 25.6681 31.9117 25.6166 31.9375 25.5929C31.9553 25.5414 32.0127 25.6107 32.0385 25.5513C32.1078 25.4027 32.1851 25.27 32.2722 25.1274C32.3594 24.9947 32.4446 24.8541 32.5317 24.7035C32.5555 24.7055 32.5476 24.7134 32.5476 24.7293C32.5832 24.6302 32.6426 24.5629 32.6783 24.4718C32.712 24.4638 32.7357 24.4737 32.7615 24.4817C32.7357 24.4737 32.8051 24.3648 32.8823 24.2499C32.9001 24.2242 32.9259 24.1905 32.9417 24.1667C32.9596 24.141 32.9853 24.1172 33.0031 24.0915C33.0368 24.0499 33.0626 24.0261 33.0626 24.0261L32.9972 23.9647C33.0645 23.8835 33.0962 24.0102 33.1398 23.9171C33.1081 23.8577 33.1319 23.834 33.1755 23.8102C33.2091 23.7844 33.2507 23.7686 33.2428 23.727C33.2507 23.7349 33.2864 23.7032 33.3101 23.729C33.2705 23.6676 33.3359 23.6775 33.3458 23.6438C33.3379 23.62 33.328 23.6359 33.3042 23.628L33.3379 23.5606C33.3716 23.5527 33.4052 23.5784 33.3874 23.6042C33.4646 23.5368 33.6766 23.3566 33.8965 23.1605C34.1183 22.9703 34.3481 22.7643 34.4154 22.6831C34.358 22.6653 34.3322 22.7386 34.257 22.697C34.2669 22.6197 34.3342 22.6475 34.3184 22.596C34.4154 22.6732 34.4352 22.5306 34.5521 22.592L34.5442 22.5247L34.5937 22.5346C34.7403 22.3028 34.6115 22.4672 34.7997 22.3207C34.8928 22.2216 34.8789 22.1107 34.9621 22.079C34.9463 22.079 34.9047 22.0691 34.9205 22.0374C34.9621 22.079 34.9641 21.9443 35.0136 21.972C35.0394 21.9384 35.1245 21.873 35.0413 21.8373C35.0829 21.8552 35.1681 21.7977 35.1503 21.8651C35.176 21.8393 35.2097 21.8314 35.2176 21.7997L35.1681 21.8156C35.2454 21.7244 35.3365 21.7343 35.3464 21.6254L35.2969 21.6313C35.3484 21.5838 35.382 21.5323 35.4573 21.5759L35.4216 21.6432C35.5068 21.56 35.5583 21.5105 35.6019 21.4115L35.5761 21.4352C35.594 21.36 35.7148 21.2035 35.8336 21.0371C35.9545 20.8727 36.0654 20.7063 36.0674 20.6311L35.9842 20.6212L36.0198 20.5122C36.0119 20.5201 36.109 20.6647 36.109 20.6826C36.1862 20.5994 36.416 20.3518 36.6378 20.0962C36.7488 19.9635 36.8597 19.8308 36.9548 19.7239C36.9964 19.6644 37.0399 19.6149 37.0736 19.5753C37.1073 19.5337 37.133 19.5 37.1588 19.4842C37.236 19.4347 37.2499 19.5357 37.2499 19.5357C37.2935 19.4367 37.2261 19.4604 37.2856 19.3931C37.3113 19.3772 37.3192 19.4287 37.3192 19.4446C37.3351 19.4109 37.3786 19.3951 37.3529 19.3693C37.3034 19.3931 37.2539 19.3337 37.2043 19.3158C37.2301 19.2841 37.2558 19.2584 37.2816 19.2247L37.3133 19.2604C37.3311 19.2425 37.242 19.1316 37.3271 19.0504C37.4539 18.9098 37.549 18.7176 37.654 18.5612C37.6777 18.577 37.6678 18.6186 37.6678 18.6701C37.6857 18.6443 37.6936 18.6107 37.7273 18.5948C37.6599 18.6107 37.7372 18.5037 37.7035 18.5275C37.6896 18.4344 37.7233 18.3591 37.7669 18.2937C37.8025 18.2264 37.8441 18.161 37.8382 18.0858C37.7887 18.058 37.4103 17.7906 37.0142 17.547C36.618 17.3034 36.214 17.0776 36.1565 17.0518C36.1644 17.0261 36.1823 17.0003 36.1981 17.0003C36.1664 16.9924 36.1308 17.0419 36.1387 17.0677L36.1961 17.1013C36.1961 17.1687 36.1545 17.1013 36.1288 17.1588C36.103 17.1508 36.0951 17.133 36.0971 17.1092C36.0971 17.0835 36.105 17.0577 36.107 17.034C36.0971 17.0498 36.0713 17.0657 36.0634 17.0835C36.0555 17.0993 36.0456 17.1152 36.0713 17.133C36.0278 17.1667 36.0139 17.0993 35.9703 17.139C35.9703 17.1825 35.9941 17.2499 35.9505 17.2737L35.9426 17.2657C35.8931 17.2974 35.8911 17.339 35.8911 17.3905C35.8891 17.4321 35.8891 17.4737 35.8376 17.5074L35.8297 17.4896C35.7881 17.5054 35.7861 17.5807 35.7267 17.6143C35.7445 17.6064 35.7861 17.6143 35.7762 17.648C35.7089 17.6896 35.7089 17.749 35.6494 17.7728L35.6653 17.8481C35.6554 17.8639 35.6475 17.8738 35.6296 17.8976C35.6217 17.9154 35.6039 17.9392 35.588 17.955C35.5603 17.9966 35.5187 18.0561 35.4831 18.1056C35.4058 18.2205 35.3127 18.3532 35.2097 18.4859C35.0037 18.7513 34.7739 19.0147 34.6789 19.1237V19.1059C34.5343 19.2722 34.2966 19.5099 34.0411 19.7575C33.7935 20.0051 33.53 20.2527 33.3755 20.4508C33.2844 20.4567 33.2151 20.5399 33.1477 20.5815C33.1972 20.5657 33.2052 20.6073 33.1794 20.6311C32.9932 20.7875 33.1953 20.6746 33.0249 20.8549C32.9397 20.9717 32.6763 21.2015 32.4129 21.4313C32.4049 21.4392 32.395 21.4491 32.3871 21.4471C32.3891 21.4154 32.3891 21.3818 32.3891 21.3481C32.3831 21.2134 32.3772 21.0866 32.3633 20.9599C32.3574 20.9004 32.3574 20.8331 32.3515 20.7757C32.3435 20.7162 32.3376 20.6489 32.3376 20.5895C32.3316 20.4627 32.3356 20.328 32.3376 20.1775C32.3455 20.2032 32.3534 20.2191 32.3614 20.2448C32.3713 20.1359 32.3673 19.9774 32.3534 19.7991C32.3475 19.708 32.3416 19.6149 32.3336 19.5139C32.3277 19.4129 32.3297 19.3198 32.3316 19.2188C32.3297 19.3277 32.294 19.4287 32.2742 19.2009C32.2782 18.9831 32.2564 18.7889 32.2445 18.6206C32.2306 18.4522 32.2168 18.2918 32.2207 18.1333C32.2049 18.0818 32.189 18.0303 32.1732 17.9808L32.1256 17.8283C32.0841 17.44 31.9791 16.7824 31.8127 15.9881C31.6443 15.1958 31.3947 14.2748 31.0956 13.3676C30.7966 12.4624 30.4321 11.5809 30.0954 10.8441C29.7507 10.1053 29.4298 9.51895 29.2436 9.17825L29.2852 9.22975C28.9941 8.71079 28.6157 8.07298 28.1522 7.39952C27.6907 6.71814 27.1381 5.9912 26.524 5.31575C26.223 4.97308 25.8961 4.64824 25.5673 4.33924C25.2405 4.02826 24.9038 3.73708 24.567 3.4776C24.2303 3.2102 23.9015 2.97647 23.5786 2.76849C23.2577 2.56051 22.9527 2.3862 22.6714 2.23764C22.6298 2.21189 22.5902 2.17624 22.5486 2.15049C22.507 2.12474 22.4575 2.09106 22.408 2.06333C22.3585 2.03758 22.309 2.00391 22.2594 1.97618C22.2357 1.96033 22.2099 1.95043 22.1862 1.9326C22.1604 1.91676 22.1366 1.90685 22.103 1.88903C21.996 1.83753 21.889 1.78405 21.788 1.73255C21.6811 1.68897 21.582 1.63549 21.4909 1.59191C21.5899 1.64341 21.6236 1.67906 21.6058 1.67906C21.5899 1.68699 21.5226 1.66718 21.4493 1.63351C21.374 1.60578 21.3166 1.58003 21.2592 1.55428C21.1997 1.53645 21.1502 1.51862 21.1086 1.5008C21.0274 1.46514 20.968 1.44731 20.9264 1.43741C20.8432 1.41166 20.8353 1.40968 20.8194 1.41958C20.8016 1.4176 20.7937 1.42751 20.7105 1.39978C20.6689 1.38987 20.6114 1.37205 20.5203 1.3463C20.4787 1.33639 20.4292 1.31856 20.3619 1.30074C20.3044 1.28291 20.2371 1.27301 20.1638 1.24528C20.0707 1.22745 19.9717 1.19972 19.8548 1.17199C19.7399 1.14426 19.6052 1.11653 19.4646 1.0888C19.3893 1.07097 19.316 1.06106 19.2407 1.05116C19.1655 1.04126 19.0823 1.02343 18.9991 1.01155C18.9159 0.993719 18.8327 0.983815 18.7416 0.973911C18.6584 0.964007 18.5653 0.954103 18.4742 0.934296C17.7334 0.845161 16.8836 0.809507 16.0478 0.853084ZM21.9841 4.45214C21.994 4.45214 21.994 4.46006 22.0019 4.46006C21.994 4.46006 21.994 4.45214 21.9841 4.45214ZM24.7136 20.7895C24.7057 20.7816 24.6978 20.7816 24.6799 20.7816C24.6879 20.7816 24.7057 20.7816 24.7136 20.7895ZM27.8729 20.1299C27.8729 20.122 27.8729 20.122 27.8729 20.1299V20.1299ZM31.8741 25.8345C31.9335 25.8187 31.9414 25.785 31.9672 25.7434C31.8998 25.7593 31.8741 25.7929 31.8741 25.8345ZM36.105 17.0498C36.1149 17.0419 36.1149 17.034 36.1149 17.0162C36.1149 17.0241 36.107 17.0419 36.105 17.0498ZM36.109 20.6984C36.109 20.6984 36.0991 20.6984 36.109 20.6984V20.6984Z" fill="#C73540"/>
</svg>
